<svg width="73" height="73" viewBox="0 0 73 73" fill="none" xmlns="http://www.w3.org/2000/svg">
<path fill-rule="evenodd" clip-rule="evenodd" d="M72.0332 24.41C68.9915 14.5246 67.8053 12.0608 65.524 10.8746C60.962 10.1054 56.3411 9.73901 51.7149 9.77957C51.5324 5.0954 59.9274 2.14499 60.2619 7.04207C60.2619 7.30828 60.3677 7.56359 60.5559 7.75183C60.7442 7.94007 60.9995 8.04582 61.2657 8.04582C61.5319 8.04582 61.7872 7.94007 61.9754 7.75183C62.1637 7.56359 62.2694 7.30828 62.2694 7.04207C62.8474 -1.62668 47.5174 0.958735 48.6428 9.71874H34.5599C34.7049 8.49767 35.1977 7.34399 35.9796 6.39494C36.7615 5.4459 37.7995 4.74145 38.9703 4.3654C44.6886 2.38832 45.0536 8.68457 46.8178 6.76832C46.9125 6.67493 46.9877 6.56365 47.0391 6.44094C47.0904 6.31823 47.1168 6.18654 47.1168 6.05353C47.1168 5.92051 47.0904 5.78882 47.0391 5.66611C46.9877 5.5434 46.9125 5.43212 46.8178 5.33874C46.1043 3.69141 44.8157 2.36005 43.1925 1.59323C41.5693 0.826417 39.7225 0.676564 37.9969 1.17165C36.1273 1.59777 34.457 2.64456 33.2584 4.14143C32.0599 5.63829 31.4036 7.49697 31.3965 9.41457C31.3965 9.80999 32.7349 9.41457 15.6407 9.74915C15.6407 7.2854 18.6824 5.61249 20.9332 4.21332C21.6369 3.76319 22.4785 3.57977 23.3057 3.69624C26.0736 4.21332 28.8415 8.59332 28.8415 5.4604C28.8415 4.39582 26.4994 2.41874 24.9482 1.53665C24.0991 1.10879 23.1615 0.885909 22.2107 0.885909C21.2599 0.885909 20.3223 1.10879 19.4732 1.53665C15.7015 3.36165 12.1732 5.61249 12.4469 9.8404C7.94527 9.96207 8.67527 9.20165 6.08985 20.395C3.83902 29.9762 3.04819 39.4358 1.52736 49.1692C0.979855 65.1683 -1.51431 51.2679 1.52736 70.4608C1.52736 70.727 1.63311 70.9823 1.82135 71.1706C2.00959 71.3588 2.26489 71.4646 2.53111 71.4646C2.79732 71.4646 3.05262 71.3588 3.24086 71.1706C3.4291 70.9823 3.53485 70.727 3.53485 70.4608C4.00941 67.6211 3.84314 64.7113 3.04819 61.9441C7.48249 62.4413 11.9549 62.5024 16.4011 62.1266C41.5861 59.085 42.6203 61.0621 62.5736 42.8425C65.0069 40.6525 63.7903 41.9908 64.5507 41.3216C65.3111 40.6525 65.1286 40.9262 66.0107 32.4096C66.8046 27.686 67.3528 22.9245 67.6532 18.1442C69.1918 21.7548 70.2157 25.5637 70.6949 29.4592C69.9654 38.6074 68.1792 47.6405 65.3719 56.3779C64.7887 60.1335 63.9037 63.8361 62.7257 67.4496C62.3303 65.1683 63.5469 67.0541 61.4482 61.5792C61.2657 60.3625 60.9919 63.7996 64.0032 47.9829C64.0371 47.8551 64.0456 47.7218 64.028 47.5907C64.0105 47.4597 63.9673 47.3333 63.9009 47.2189C63.8345 47.1045 63.7463 47.0043 63.6412 46.9241C63.5361 46.8438 63.4162 46.785 63.2884 46.751C63.1606 46.7171 63.0273 46.7086 62.8962 46.7262C62.7652 46.7437 62.6388 46.7869 62.5244 46.8533C62.41 46.9197 62.3098 47.0079 62.2295 47.113C62.1493 47.2181 62.0905 47.338 62.0565 47.4658L59.0149 57.1383C57.1898 62.7654 42.2857 57.99 41.799 61.3662C41.7741 61.487 41.7747 61.6116 41.8009 61.7321C41.8271 61.8526 41.8783 61.9663 41.9511 62.0658C42.8028 63.1608 56.9161 63.1608 57.1594 63.1608C59.5015 63.1608 59.2278 62.0658 59.0149 63.8908C59.0727 65.4861 59.4666 67.0511 60.1707 68.4837C53.7528 69.3962 6.27236 69.305 6.02902 69.305C5.76281 69.305 5.5075 69.4107 5.31926 69.599C5.13102 69.7872 5.02527 70.0425 5.02527 70.3087C5.02527 70.5749 5.13102 70.8302 5.31926 71.0185C5.5075 71.2067 5.76281 71.3125 6.02902 71.3125C12.599 71.3125 19.4124 71.86 26.2257 71.9512H60.2315C62.7257 71.7383 64.3378 73.9283 66.4669 66.9325C67.4403 63.8908 67.7749 60.18 68.5049 57.26C70.5428 48.4087 73.1282 38.7058 72.9457 29.52C72.8736 27.7833 72.5666 26.0643 72.0332 24.41ZM45.6315 52.1804C39.8259 55.9365 33.1064 58.0396 26.1953 58.2637C31.1637 54.9463 35.4659 50.7265 38.879 45.8233C41.4644 42.3254 43.989 39.5575 44.1107 37.3066C44.1107 38.28 46.9699 41.1087 60.5357 41.8691C55.9237 45.7944 50.9308 49.2486 45.6315 52.1804ZM65.1286 16.7146C65.004 21.8744 64.5876 27.023 63.8815 32.1358C63.0907 40.4396 64.1553 40.1962 59.8969 39.6487C55.8483 39.2806 51.9006 38.1777 48.2474 36.3941C46.0878 34.9646 44.0499 33.0787 42.164 35.3296C41.6469 35.9987 41.2515 37.1241 40.8865 37.6716C35.3811 44.85 29.389 53.3666 20.9028 57.7771C16.0057 60.4233 5.69444 60.2712 1.74027 59.8454C4.26485 49.6558 3.86944 40.5916 11.1086 13.2775C12.0211 13.095 11.1086 13.095 13.3594 13.0342C13.777 14.1788 14.4279 15.2241 15.271 16.1038C16.114 16.9835 17.1307 17.6783 18.2565 18.1442C18.4703 18.241 18.7138 18.2489 18.9334 18.1662C19.153 18.0835 19.3308 17.9169 19.4276 17.7031C19.5244 17.4893 19.5323 17.2459 19.4496 17.0262C19.3669 16.8066 19.2003 16.6289 18.9865 16.5321C17.6252 15.7632 16.6123 14.4996 16.1578 13.0037L32.0961 12.8212C32.8343 14.252 33.8717 15.5072 35.1378 16.5017C35.7004 16.6895 36.3089 16.6895 36.8715 16.5017C38.3315 15.8325 37.2365 14.0987 36.2024 14.7679C35.7574 14.1563 35.3705 13.5046 35.0465 12.8212H49.6769C50.3686 14.0083 51.141 15.1466 51.9886 16.2279C52.2361 16.442 52.5289 16.597 52.8451 16.6813C53.1612 16.7656 53.4924 16.777 53.8136 16.7146C54.0132 16.6215 54.1753 16.4636 54.2736 16.2665C54.3718 16.0694 54.4003 15.8448 54.3544 15.6295C54.3085 15.4141 54.1909 15.2207 54.0209 15.0808C53.8508 14.9408 53.6384 14.8627 53.4182 14.8592L52.4449 12.8212C67.8661 12.9429 65.0678 12.9733 65.1286 16.7146Z" fill="#F1F1F1"/>
<path fill-rule="evenodd" clip-rule="evenodd" d="M24.34 48.0741C21.2983 48.8041 17.192 47.6787 9.13163 50.4162C8.00622 50.4162 7.6108 51.6024 8.82747 52.0283C8.96646 52.0894 9.11665 52.121 9.26851 52.121C9.42036 52.121 9.57056 52.0894 9.70955 52.0283C11.4737 52.0283 13.2075 52.2412 15.58 52.0283C18.7722 51.7342 21.9062 50.9865 24.8875 49.8078C25.0279 49.6787 25.1286 49.5121 25.1778 49.3278C25.2269 49.1434 25.2225 48.9488 25.1651 48.7669C25.1076 48.5849 24.9995 48.4231 24.8533 48.3004C24.7072 48.1777 24.5291 48.0992 24.34 48.0741Z" fill="#29B0A5"/>
<path fill-rule="evenodd" clip-rule="evenodd" d="M29.1455 29.7025C27.503 29.9458 23.3359 29.3983 19.5642 29.7025C17.8609 29.9154 16.5225 30.25 15.3667 30.4325C11.96 31.0104 12.325 31.8621 13.42 32.2575C18.7908 33.3622 24.3522 33.1113 29.6017 31.5275C29.7705 31.4116 29.8997 31.247 29.9723 31.0555C30.0448 30.8641 30.057 30.6551 30.0074 30.4565C29.9577 30.258 29.8486 30.0793 29.6945 29.9445C29.5404 29.8098 29.3489 29.7253 29.1455 29.7025Z" fill="#29B0A5"/>
<path fill-rule="evenodd" clip-rule="evenodd" d="M10.6218 39.9225C10.3738 39.922 10.135 40.0162 9.95417 40.1858C9.77328 40.3553 9.66393 40.5876 9.64844 40.835C9.64844 41.5954 9.83094 42.295 15.7318 42.0821C21.6326 41.8692 34.5597 40.2571 34.5597 39.5879C34.5597 36.3942 10.1047 40.0138 10.6218 39.9225Z" fill="#29B0A5"/>
<path fill-rule="evenodd" clip-rule="evenodd" d="M58.7714 24.8359C53.2964 22.8284 31.3964 21.7942 33.556 24.8359C34.1339 25.6875 33.3431 24.8359 40.5214 25.8092C44.7614 26.2948 49.0305 26.4777 53.2964 26.3567C61.5089 27.6038 60.2618 25.353 58.7714 24.8359Z" fill="#29B0A5"/>
</svg>
