<svg width="50" height="54" viewBox="0 0 50 54" fill="none" xmlns="http://www.w3.org/2000/svg">
<path fill-rule="evenodd" clip-rule="evenodd" d="M35.388 1.45715C34.2286 2.25347 33.1555 3.16872 32.1863 4.18799C31.8907 4.42805 31.7007 4.77414 31.6567 5.15238C31.6127 5.53063 31.7183 5.91108 31.9509 6.21257C33.128 7.67215 34.258 6.21257 36.6592 4.94132C37.4615 4.66908 38.3144 4.5792 39.1557 4.67821C39.9971 4.77723 40.8058 5.06264 41.523 5.51368C42.2401 5.96471 42.8477 6.57001 43.3013 7.28549C43.755 8.00098 44.0434 8.80864 44.1455 9.64965C43.8766 12.2627 42.8079 14.7291 41.0851 16.7122C38.5426 14.3109 32.9396 9.55548 31.433 8.04882C31.2877 7.89424 31.1133 7.7698 30.9199 7.68259C30.7265 7.59539 30.5179 7.54713 30.3058 7.54057C30.0938 7.53401 29.8825 7.56928 29.6841 7.64437C29.4857 7.71946 29.304 7.83289 29.1494 7.9782C28.9949 8.1235 28.8704 8.29782 28.7832 8.49122C28.696 8.68461 28.6477 8.89329 28.6412 9.10534C28.6346 9.31738 28.6699 9.52864 28.745 9.72706C28.8201 9.92547 28.9335 10.1072 29.0788 10.2617C30.4913 11.8626 36.1413 17.0888 38.4955 19.6784C36.2826 21.6088 33.2692 25.2342 19.2855 39.3592C18.6846 37.6084 17.6945 36.0165 16.3897 34.7035C15.0849 33.3905 13.4992 32.3906 11.7521 31.7788C16.4605 25.8463 22.958 18.5484 27.3367 13.5105C28.0901 12.4276 27.3367 10.4972 25.5005 11.4388C25.0767 11.6742 3.70088 33.0971 3.0888 35.7809C0.781718 46.2805 -0.254116 50.1413 1.1113 51.7892C1.79331 52.3619 2.60006 52.7666 3.4668 52.971C4.33354 53.1754 5.23613 53.1738 6.10214 52.9663C9.89907 52.2506 13.5659 50.9648 16.9784 49.1526C18.5792 48.0226 43.6746 20.4788 47.253 14.8288C48.6383 13.1672 49.3818 11.0639 49.3485 8.90077C49.3151 6.73767 48.5072 4.65825 47.0714 3.04008C45.6355 1.42192 43.667 0.372316 41.5232 0.0818664C39.3795 -0.208583 37.2026 0.27938 35.388 1.45715ZM5.96088 48.1638C7.51463 35.4042 7.6088 36.9109 9.39797 34.6038C11.3903 37.4187 13.7858 39.9252 16.5075 42.043L13.918 44.4913C11.4591 46.0973 8.77827 47.3346 5.96088 48.1638Z" fill="white"/>
</svg>
