<svg width="62" height="62" viewBox="0 0 62 62" fill="none" xmlns="http://www.w3.org/2000/svg">
<g clip-path="url(#clip0_203_93)">
<path fill-rule="evenodd" clip-rule="evenodd" d="M60.8812 39.9947C59.7034 37.2628 57.6499 35.0006 55.0449 33.5642C52.4949 32.0925 49.5959 31.3343 46.6519 31.3692C43.438 31.4361 40.276 32.1935 37.3806 33.5901C34.4105 35.022 31.9502 37.3292 30.3304 40.2013C28.6642 43.7046 28.2978 47.6865 29.2976 51.4349C29.6716 53.3234 30.4554 55.1064 31.5931 56.6592C32.7308 58.2118 34.1951 59.4962 35.8828 60.4221C37.3563 61.124 38.9357 61.5776 40.557 61.7649C42.1507 61.985 43.7671 61.985 45.3605 61.7649C45.4558 61.7523 45.5478 61.7207 45.6307 61.6722C45.7139 61.6236 45.7862 61.559 45.8441 61.482C45.9017 61.4051 45.9436 61.3172 45.9671 61.224C45.9903 61.1307 45.995 61.0336 45.9802 60.9385C45.9712 60.8416 45.942 60.7479 45.8945 60.6629C45.8469 60.5779 45.7824 60.504 45.7043 60.4456C45.6266 60.3872 45.5375 60.3456 45.4426 60.3239C45.3478 60.302 45.2494 60.3004 45.1538 60.3188C43.6997 60.4676 42.2323 60.4242 40.7895 60.1896C39.3584 59.9623 37.9724 59.5089 36.6833 58.8468C35.3082 57.9809 34.1354 56.8292 33.2441 55.4701C32.3532 54.1113 31.7647 52.5765 31.5185 50.9702C30.7727 47.7702 31.194 44.4093 32.7063 41.4925C34.0809 39.1445 36.146 37.2778 38.6203 36.1468C41.1553 34.9367 43.9205 34.2852 46.7291 34.2356C49.1655 34.1876 51.5711 34.7846 53.7021 35.9659C55.8483 37.1096 57.5624 38.9233 58.5828 41.1311C59.9499 44.1564 60.0703 47.5982 58.9186 50.7119C57.7416 53.8576 55.467 56.4717 52.514 58.072C51.6894 58.5422 50.8253 58.9398 49.9314 59.2599C49.3732 59.4482 48.7901 59.5525 48.2014 59.5699C48.0787 59.5482 47.9529 59.5538 47.8327 59.5859C47.7126 59.6182 47.601 59.6763 47.5057 59.7564C47.4104 59.8365 47.3336 59.9362 47.2812 60.0491C47.2285 60.1617 47.2014 60.2847 47.2014 60.4092C47.2014 60.5334 47.2285 60.6564 47.2812 60.7693C47.3336 60.8819 47.4104 60.9819 47.5057 61.062C47.601 61.1418 47.7126 61.1999 47.8327 61.2322C47.9529 61.2645 48.0787 61.27 48.2014 61.2485C48.9555 61.2397 49.7041 61.1178 50.4223 60.8868C51.4461 60.4942 52.4246 59.992 53.3404 59.389C56.7876 57.6685 59.4877 54.7481 60.9328 51.1769C62.3733 47.585 62.355 43.5728 60.8812 39.9947Z" fill="#00FF4D"/>
<path fill-rule="evenodd" clip-rule="evenodd" d="M47.0905 38.4193C47.1319 38.231 47.0965 38.0339 46.9921 37.8717C46.888 37.7094 46.7237 37.5953 46.5354 37.5542C46.3471 37.5131 46.1502 37.5485 45.988 37.6526C45.8257 37.7567 45.7113 37.921 45.6702 38.1093C44.996 40.0071 44.4183 41.9378 43.9402 43.8942C43.656 45.1853 43.4493 46.4768 43.1396 47.7421C43.1396 47.7421 43.1396 49.3691 44.4566 49.4466H44.9988L47.2972 49.2657L53.0562 48.5168C53.2779 48.5168 53.4908 48.4308 53.6499 48.2763C53.809 48.1221 53.9018 47.9121 53.9085 47.6904C53.9085 47.4713 53.8214 47.2611 53.6664 47.1061C53.5114 46.9511 53.3011 46.864 53.0821 46.864L47.1681 46.7348H46.1869C46.1869 46.2443 46.3416 45.7795 46.3933 45.3145C46.7808 43.0678 46.7808 40.7436 47.0905 38.4193Z" fill="#00FF4D"/>
<path fill-rule="evenodd" clip-rule="evenodd" d="M11.5301 3.9434C11.1296 3.74136 10.6874 3.63612 10.2388 3.63612C9.79029 3.63612 9.34802 3.74136 8.94758 3.9434C8.50857 4.27913 7.29479 7.27479 5.74531 18.4828C5.22882 21.9691 4.29913 25.1714 3.67934 28.2446C2.9304 31.6275 2.33644 34.8556 1.66499 37.9029C0.993558 40.1515 0.450363 42.4364 0.0380341 44.7464C-0.0333054 45.1202 -0.00393027 45.5062 0.123144 45.8645C0.250219 46.2231 0.470415 46.5413 0.761127 46.7867C3.12663 47.6984 5.5739 48.3814 8.06953 48.8268C14.5516 50.2471 23.2803 51.6419 24.6749 52.0033C24.8937 52.0412 25.1187 51.9924 25.302 51.8671C25.4853 51.7416 25.6124 51.5496 25.6562 51.3319C25.6937 51.1162 25.6441 50.8942 25.5182 50.7152C25.3923 50.5359 25.2004 50.4143 24.9848 50.3763C23.5386 50.0407 15.0164 48.1812 8.66352 46.5026C6.08104 45.8312 3.9634 45.2373 2.80129 44.7723C3.11119 42.8614 4.32494 38.781 4.40241 38.4971C4.84145 36.4051 5.3063 34.2359 5.69367 31.9375C7.01073 24.4741 8.06953 15.9261 10.1097 5.72531V5.59619C10.3944 5.75794 10.6875 5.90449 10.9877 6.03521C11.2778 6.15159 11.6015 6.15159 11.8916 6.03521C12.0603 5.89943 12.1897 5.72097 12.2662 5.51833C12.3427 5.3157 12.3636 5.09629 12.3267 4.88286C12.2898 4.66945 12.1965 4.46976 12.0564 4.30458C11.9163 4.13938 11.7346 4.01468 11.5301 3.9434Z" fill="#F1F1F1"/>
<path fill-rule="evenodd" clip-rule="evenodd" d="M46.1352 23.4668C46.3419 22.5887 46.4969 21.7365 46.6519 20.8843C46.8066 20.0321 46.8841 19.154 46.9875 18.3018C47.1941 16.4424 47.3233 14.4797 47.5039 12.1555C47.5424 12.0117 47.5424 11.8603 47.5039 11.7165C47.5039 11.7165 47.7105 11.5099 47.7364 11.3808C47.7666 11.2632 47.7715 11.1406 47.7506 11.021C47.7297 10.9014 47.6834 10.7877 47.615 10.6874C47.5465 10.5872 47.4574 10.5027 47.3535 10.4397C47.2499 10.3766 47.1339 10.3365 47.0133 10.322C46.3419 10.0121 45.9544 9.96041 45.2572 9.70218C44.8294 9.63659 44.3938 9.63659 43.966 9.70218C43.3204 9.70218 42.4424 11.5099 43.0621 11.639C43.9771 11.7972 44.8994 11.9092 45.8255 11.9747C45.283 14.1957 44.7924 16.0551 44.3791 17.8112C44.1985 18.6892 44.0177 19.5414 43.8627 20.3936C43.7077 21.2459 43.5785 22.0981 43.5013 22.9761C43.2946 24.8097 43.2171 26.7724 43.0621 29.1224C43.0435 29.2175 43.0443 29.3154 43.0644 29.4102C43.0843 29.505 43.1233 29.5949 43.1786 29.6742C43.2341 29.7538 43.3049 29.8212 43.3868 29.8729C43.469 29.9246 43.5604 29.9592 43.656 29.9747C43.8464 29.9987 44.0391 29.9514 44.1964 29.8416C44.354 29.7318 44.4651 29.5675 44.5082 29.3808C44.6632 28.7866 45.9286 24.2932 46.1352 23.4668Z" fill="#F1F1F1"/>
<path fill-rule="evenodd" clip-rule="evenodd" d="M53.2887 9.65055C53.0885 8.70281 52.6633 7.81711 52.0493 7.06807C51.4352 6.20366 50.5938 5.52639 49.6181 5.11153C48.6426 4.69665 47.5711 4.56043 46.5227 4.71801L45.5672 4.53723C42.649 3.94327 40.5312 3.27181 37.6389 2.62621C36.6058 2.39378 35.4697 2.213 34.1783 1.98058C32.8871 1.74816 31.0276 1.51574 29.4009 1.33496C18.3736 0.172848 18.1154 -0.937618 15.1455 1.64486C14.805 1.91408 14.5012 2.22662 14.2417 2.57455C13.9909 2.9592 13.7749 3.36541 13.596 3.78832C13.3276 4.57363 13.1119 5.37599 12.9504 6.19002C11.685 12.9045 10.213 20.0063 8.14701 31.2142C7.86295 32.7636 6.88159 35.217 6.57169 37.3863C6.37427 38.4586 6.41837 39.5614 6.70083 40.6144C6.91569 41.0572 7.23049 41.4439 7.6204 41.7443C8.0103 42.0445 8.46466 42.2502 8.94758 42.3447C11.8658 43.1711 18.6577 43.4553 24.0809 44.5139C24.2931 44.5604 24.515 44.5214 24.6987 44.4054C24.8824 44.2894 25.0129 44.1058 25.0622 43.8942C25.0891 43.7872 25.0942 43.6762 25.0774 43.5671C25.0606 43.4584 25.0222 43.354 24.9645 43.26C24.9067 43.1662 24.8308 43.0848 24.7412 43.0208C24.6515 42.9567 24.5499 42.9112 24.4424 42.8869C20.6978 41.9058 16.1269 41.3116 12.9504 40.6661C11.1427 40.3305 8.74099 40.1496 9.18001 39.5816C9.18001 39.5816 9.33495 39.788 9.36079 39.8913C9.21982 38.9236 9.29029 37.9368 9.56738 36.999C10.0064 35.1395 10.7037 33.1511 11.0136 31.8342C11.5042 29.6388 12.0982 27.4438 12.4081 25.2229C14.9906 7.79115 14.5774 9.05657 15.9978 5.38945C16.2818 4.66635 17.0307 2.80697 18.1154 2.39378C20.959 2.41431 23.7914 2.75212 26.56 3.40095C28.9101 3.8658 31.286 4.22734 33.7394 4.71801C37.4064 5.18286 39.7565 5.67354 42.3649 6.06091L43.4496 6.21586C40.3248 8.79831 40.402 10.2187 37.9489 19.1282C37.7164 19.903 37.5614 20.7036 37.4064 21.5041C37.2517 22.3047 37.1225 23.0794 37.0192 23.88C36.7867 25.7652 36.6317 27.6504 36.4767 29.5355C36.4583 29.6443 36.4619 29.7556 36.4873 29.8628C36.5126 29.97 36.5591 30.0713 36.6242 30.1604C36.689 30.2493 36.7712 30.3245 36.8657 30.3813C36.96 30.4381 37.0649 30.4756 37.1742 30.4911C37.3899 30.5285 37.6115 30.4789 37.7908 30.3531C37.9698 30.2273 38.0918 30.0354 38.1295 29.8197C38.5945 27.986 39.1367 26.2043 39.6015 24.3965C39.8081 23.5959 39.989 22.8212 40.1698 22.0464C40.3506 21.2717 40.4537 20.4711 40.557 19.6706C40.8304 16.6085 41.5346 13.6004 42.649 10.7352C42.9634 9.56577 43.6994 8.55398 44.7149 7.89445C45.1029 7.56642 45.5563 7.32452 46.0451 7.18479C46.5336 7.04508 47.0464 7.0107 47.5494 7.08393C48.0523 7.15717 48.5339 7.33635 48.9622 7.60964C49.3908 7.88293 49.7563 8.24408 50.0348 8.6692C50.4453 9.26713 50.6946 9.96099 50.7578 10.6835C50.8459 11.5421 50.8459 12.4074 50.7578 13.266C50.7578 14.8155 50.5254 16.4166 50.3189 18.0178C50.1123 19.6189 49.8539 21.22 49.5184 22.7437L48.7178 25.9201C48.6395 26.1123 48.5791 26.311 48.537 26.514C48.3236 26.5528 48.1048 26.5528 47.8914 26.514C47.547 26.4978 47.2071 26.428 46.8841 26.3076C45.9286 26.3076 45.4638 27.5471 46.3419 27.9346C46.9082 28.2061 47.5225 28.364 48.1497 28.3994C48.7459 28.4435 49.3432 28.3275 49.8798 28.0635C50.1128 27.9398 50.2954 27.7391 50.3964 27.4954C50.5238 27.1413 50.6274 26.7788 50.7062 26.4107L51.6876 23.3893C52.189 21.788 52.5943 20.1581 52.9012 18.5084C53.2019 16.8592 53.4174 15.1956 53.5471 13.5243C53.6414 12.2273 53.5543 10.9235 53.2887 9.65055Z" fill="#F1F1F1"/>
<path fill-rule="evenodd" clip-rule="evenodd" d="M37.8714 13.2403C37.9205 13.0249 37.8864 12.799 37.7763 12.6076C37.6663 12.4161 37.488 12.2732 37.2772 12.2073C34.9272 11.4067 32.5771 10.632 30.124 10.038C29.0909 9.77975 28.032 9.57313 26.9734 9.39235C25.9145 9.2116 24.8815 9.08245 23.7968 8.97917C21.2144 8.79839 18.8126 8.82422 16.3335 8.97917C16.1417 8.97917 15.9578 9.05536 15.8222 9.19095C15.6865 9.32655 15.6104 9.51049 15.6104 9.70225C15.6104 9.89403 15.6865 10.078 15.8222 10.2136C15.9578 10.3492 16.1417 10.4253 16.3335 10.4253C19.0967 10.8127 21.8083 11.4325 24.5716 11.9232C26.2245 12.2331 27.8773 12.4397 29.5298 12.6979C32.1124 13.0853 34.4883 13.421 36.9417 13.9375C37.1551 13.9545 37.3671 13.8931 37.5384 13.7647C37.7094 13.6363 37.828 13.4498 37.8714 13.2403Z" fill="#F1F1F1"/>
<path fill-rule="evenodd" clip-rule="evenodd" d="M32.8355 21.6075C32.9241 21.4049 32.9305 21.1759 32.8533 20.9687C32.7763 20.7615 32.6216 20.5924 32.4221 20.497C31.8621 20.1987 31.2738 19.9565 30.6662 19.7739C29.7882 19.5157 28.8843 19.3349 28.0837 19.1283C27.2831 18.9217 26.7667 18.8184 26.095 18.7409C25.102 18.6127 24.1005 18.5609 23.0995 18.586C21.4129 18.695 19.7423 18.9807 18.1153 19.4382C17.9236 19.4759 17.7531 19.5847 17.6382 19.7427C17.5232 19.9007 17.4723 20.0964 17.4955 20.2904C17.5273 20.4801 17.6309 20.6502 17.7847 20.7656C17.9386 20.881 18.1309 20.9327 18.3219 20.9102H20.2329C21.5242 20.9102 22.8154 21.2201 24.0033 21.3492C25.1913 21.4783 26.5859 21.3492 27.7995 21.6075H30.3821C30.8817 21.6473 31.3754 21.7426 31.8541 21.8916C32.0264 21.9566 32.2152 21.9641 32.3919 21.9129C32.5689 21.8616 32.7244 21.7545 32.8355 21.6075Z" fill="#F1F1F1"/>
<path fill-rule="evenodd" clip-rule="evenodd" d="M26.0695 28.0119C25.3642 27.8034 24.6487 27.6308 23.9259 27.4954C23.2076 27.3784 22.4834 27.3009 21.7566 27.2629C20.0309 27.2177 18.3042 27.304 16.5917 27.5213C16.4201 27.5536 16.2652 27.6448 16.1537 27.7791C16.0422 27.9137 15.9812 28.0826 15.9812 28.2573C15.9812 28.4319 16.0422 28.6011 16.1537 28.7354C16.2652 28.8698 16.4201 28.961 16.5917 28.9933C18.4769 29.2516 20.233 29.7163 22.0407 30.0522C23.1253 30.2588 24.1842 30.3877 25.2946 30.5686C26.9475 30.8011 28.5743 31.0078 30.2271 31.3692C30.4394 31.4348 30.6691 31.4146 30.867 31.3134C31.0646 31.2121 31.2149 31.0375 31.286 30.8269C31.3516 30.6146 31.3314 30.3849 31.2302 30.1873C31.1289 29.9894 30.9543 29.839 30.7437 29.768C29.2198 29.095 27.6592 28.5086 26.0695 28.0119Z" fill="#F1F1F1"/>
</g>
<defs>
<clipPath id="clip0_203_93">
<rect width="62" height="62" fill="white"/>
</clipPath>
</defs>
</svg>
